<svg width="100" height="100" viewBox="0 0 100 100" fill="none" xmlns="http://www.w3.org/2000/svg">
<mask id="mask0_54_99" style="mask-type:alpha" maskUnits="userSpaceOnUse" x="0" y="0" width="100" height="100">
<circle cx="50" cy="50" r="50" fill="#454266"/>
</mask>
<g mask="url(#mask0_54_99)">
<circle cx="50" cy="50" r="50" fill="#454266"/>
<path fill-rule="evenodd" clip-rule="evenodd" d="M43.6667 33.362V30H43.3592C42.2897 30 41.2545 30.2118 40.2534 30.6321C39.257 31.0498 38.3561 31.6659 37.6055 32.4429C36.875 33.1771 36.3019 34.0525 35.9211 35.0157V35.0191C35.5821 35.9336 35.355 36.8858 35.2446 37.8549V37.8618C35.1474 38.8414 35.12 39.8268 35.1626 40.8103C35.2036 41.8012 35.2241 42.792 35.2241 43.7794C35.2241 44.473 35.0874 45.1222 34.8243 45.7338C34.3229 46.9273 33.3894 47.891 32.2106 48.4261C31.6095 48.6886 30.96 48.8225 30.3041 48.819H30V52.181H30.3075C30.9737 52.181 31.6058 52.3177 32.2072 52.5944L32.2106 52.5978C32.8188 52.8643 33.3347 53.2265 33.7652 53.6843L33.772 53.6912C34.2162 54.1353 34.5681 54.6649 34.8209 55.2799L34.8243 55.2868C35.0908 55.9018 35.2241 56.5441 35.2241 57.2206C35.2241 58.2114 35.2036 59.2023 35.1626 60.1897C35.1216 61.201 35.1489 62.1884 35.2446 63.1622C35.3573 64.1291 35.5828 65.0721 35.9177 65.9809C36.2798 66.9137 36.8436 67.7747 37.6055 68.5571C38.3674 69.3429 39.2523 69.9477 40.2534 70.3679C41.2545 70.7882 42.2897 71 43.3626 71H43.6667V67.638H43.3592C42.6758 67.638 42.0369 67.5082 41.4356 67.2451C40.8556 66.9741 40.3272 66.6041 39.8742 66.1518C39.4344 65.6836 39.0774 65.144 38.8184 64.5562C38.5656 63.9412 38.4426 63.292 38.4426 62.5984C38.4426 61.8194 38.4528 61.0507 38.4802 60.3024C38.5075 59.5234 38.5075 58.7649 38.4802 58.0303C38.4681 57.298 38.4053 56.5673 38.2923 55.8437C38.1836 55.1299 37.9909 54.4315 37.7182 53.7629C37.1865 52.4693 36.3168 51.3423 35.2002 50.5C36.318 49.6581 37.1889 48.5311 37.7217 47.2371C37.995 46.5811 38.1829 45.8943 38.2957 45.1803C38.4084 44.4628 38.4699 43.735 38.4836 42.9936C38.5109 42.2419 38.5109 41.4834 38.4836 40.7181C38.4562 39.9528 38.4426 39.1806 38.4426 38.4016C38.4367 37.4223 38.7171 36.4627 39.2495 35.6407C39.7819 34.8188 40.5429 34.1704 41.439 33.7754C42.0423 33.4988 42.6989 33.3577 43.3626 33.362H43.6667ZM57.3333 67.638V71H57.6408C58.7103 71 59.7455 70.7882 60.7466 70.3679C61.7477 69.9477 62.6326 69.3429 63.3945 68.5571C64.1564 67.7713 64.7202 66.9171 65.0789 65.9843C65.4206 65.0755 65.6427 64.1257 65.7554 63.1451V63.1383C65.8511 62.1816 65.8784 61.201 65.8374 60.1897C65.7964 59.1988 65.7759 58.208 65.7759 57.2206C65.7759 56.527 65.9126 55.8778 66.1757 55.2663V55.2628C66.6765 54.0689 67.6102 53.1084 68.7894 52.5739C69.3907 52.3118 70.04 52.1779 70.6959 52.181H71V48.819H70.6925C70.0228 48.819 69.3907 48.6823 68.7894 48.4056L68.786 48.4022C68.1994 48.1494 67.6704 47.7797 67.2314 47.3157L67.2246 47.3088C66.7731 46.854 66.4166 46.314 66.1757 45.7201V45.7133C65.9087 45.1036 65.7714 44.445 65.7725 43.7794C65.7725 42.7886 65.793 41.7978 65.834 40.8103C65.8766 39.8188 65.8492 38.8255 65.752 37.8378C65.6412 36.8758 65.4153 35.9272 65.0789 35.0191V35.0157C64.6971 34.0522 64.1228 33.1768 63.3911 32.4429C62.6404 31.666 61.7395 31.0498 60.7432 30.6321C59.7598 30.2145 58.7024 29.9995 57.634 30H57.3333V33.362H57.6408C58.3242 33.362 58.9631 33.4918 59.561 33.7549C60.1555 34.0351 60.6748 34.3973 61.1224 34.8483C61.5563 35.3061 61.9083 35.8391 62.1782 36.4438C62.431 37.0588 62.554 37.708 62.554 38.4016C62.554 39.1806 62.5438 39.9459 62.5164 40.6976C62.4891 41.4766 62.4891 42.2351 62.5164 42.9697C62.5301 43.7282 62.5916 44.4559 62.7043 45.1563C62.8171 45.8875 63.0084 46.5777 63.2783 47.2371C63.8112 48.5311 64.6821 49.658 65.7998 50.5C64.6821 51.342 63.8112 52.469 63.2783 53.7629C63.0077 54.4239 62.8151 55.1142 62.7043 55.8198C62.5916 56.5373 62.5301 57.265 62.5164 58.0064C62.4888 58.7647 62.4888 59.5237 62.5164 60.2819C62.5438 61.0473 62.5574 61.8194 62.5574 62.5984C62.5629 63.5776 62.2823 64.537 61.7499 65.3589C61.2176 66.1807 60.4568 66.8292 59.561 67.2246C58.9577 67.5012 58.3011 67.6423 57.6374 67.638H57.3333Z" fill="white"/>
</g>
</svg>
