<svg width="100" height="100" viewBox="0 0 100 100" fill="none" xmlns="http://www.w3.org/2000/svg">
<mask id="mask0_54_86" style="mask-type:alpha" maskUnits="userSpaceOnUse" x="0" y="0" width="100" height="100">
<circle cx="50" cy="50" r="50" fill="#454266"/>
</mask>
<g mask="url(#mask0_54_86)">
<circle cx="50" cy="50" r="50" fill="#454266"/>
<path d="M24 25V76H75V25H24ZM51.8032 64.7306C51.8032 69.7484 48.8419 72.0516 44.5645 72.0516C40.7806 72.0516 38.5597 70.0774 37.4081 67.6097L41.3565 65.1419C42.0145 66.5403 42.7548 67.6097 44.4823 67.6097C46.1274 67.6097 47.0323 67.0339 47.0323 64.5661V48.4435H51.8032V64.7306ZM63.1548 72.0516C58.7129 72.0516 55.8339 69.8306 54.3532 67.1984L58.3016 64.8952C59.371 66.5403 60.7694 67.7742 63.0726 67.7742C65.0468 67.7742 66.2806 66.8694 66.2806 65.3065C66.2806 63.6613 65.0468 63.0855 62.8258 62.0984L61.6742 61.6048C58.2194 60.2065 55.9161 58.2323 55.9161 54.2839C55.9161 50.6645 58.5484 48.0323 62.9081 48.0323C65.9516 48.0323 68.0903 49.1016 69.6532 51.8984L65.9516 54.3661C65.129 52.9677 64.3065 52.3097 62.8258 52.3097C61.4274 52.3097 60.5226 53.2145 60.5226 54.3661C60.5226 55.7645 61.4274 56.3403 63.4016 57.2452L64.5532 57.7387C68.5839 59.4661 70.9694 61.1935 70.9694 65.3065C71.0516 69.6661 67.679 72.0516 63.1548 72.0516Z" fill="#D4F025"/>
</g>
</svg>
