<svg width="100" height="100" viewBox="0 0 100 100" fill="none" xmlns="http://www.w3.org/2000/svg">
<mask id="mask0_54_53" style="mask-type:alpha" maskUnits="userSpaceOnUse" x="0" y="0" width="100" height="100">
<circle cx="50" cy="50" r="50" fill="#454266"/>
</mask>
<g mask="url(#mask0_54_53)">
<circle cx="50" cy="50" r="50" fill="#454266"/>
<path d="M45.9857 23.5666L70.9952 33.3805L72.5002 30.0002L85.1668 35.6668L87.3285 32.2139L113 44.6668L78.1668 98.8335L23.6668 74.3335L45.9857 23.5666Z" fill="#3A3654"/>
<path d="M20.6826 70.4998C20.8493 71.1664 21.016 71.4998 21.016 71.4998C21.016 71.4998 22.1826 74.6664 25.3493 74.6664C28.516 74.6664 29.7938 72.1664 30.016 70.8331L32.3493 51.9998C32.9049 52.2775 34.4493 52.8331 36.1826 52.8331C37.916 52.8331 39.4604 52.0553 40.016 51.6664V51.8331V70.1664C40.016 71.3331 40.6826 75.9998 47.016 76.1664C52.0826 76.2998 53.6826 72.6664 53.8493 70.8331V64.8331C54.6271 65.3331 56.8493 66.3664 59.516 66.4998C62.1826 66.6331 64.7382 65.3331 65.6826 64.6664V67.1664C65.6826 69.4998 64.8493 74.4998 71.1826 76.1664C76.6826 76.9998 79.3493 73.9998 80.016 70.6664C80.0715 67.722 80.1826 61.3664 80.1826 59.4998C80.1826 57.1664 79.6826 54.4998 80.6826 51.8331L80.6918 51.8086C81.6846 49.1613 81.9994 48.3219 81.8493 44.6664C81.7563 42.4017 81.3332 40.6664 79.6826 37.4998L78.516 35.6664H82.1826L82.6826 36.1664C83.3332 36.6664 84.3414 37.2619 84.516 37.3331C85.3332 37.6664 86.317 37.6664 86.8332 37.6664C87.2404 37.6664 87.4998 37.3331 87.6665 37.1664C87.8332 36.9998 87.9998 36.8331 87.516 36.3331L87.3332 36.1664L87.016 35.8331L87.6665 35.6664L88.3493 35.4998C88.8332 35.1664 88.6665 35.3331 89.1826 34.6664C89.2933 34.5235 89.1665 34.3331 88.516 33.9998L87.8332 33.8331L87.016 33.6664C86.9998 33.6664 87.0668 33.5691 87.516 33.3331C87.8332 33.1664 87.8332 33.1664 87.9998 32.8331L87.6665 32.4998L87.3332 32.1664L86.8332 31.9998H85.8493C85.1665 31.9998 84.6665 31.9998 83.8493 32.4998C82.8127 33.1341 82.611 33.5553 82.1665 33.9998H80.4998H77.3493C77.3493 33.9998 77.3256 33.8642 77.016 33.4998C76.1665 32.4998 74.3876 31.0805 72.8493 30.1664C71.1665 29.1664 68.5512 28.1122 66.8493 27.8331C65.8332 27.6664 64.9998 27.6664 64.1826 27.6664C62.9998 27.6664 60.016 27.8331 59.3493 27.8331C58.6826 27.8331 55.6826 29.1664 55.3493 29.3331C55.0826 29.4664 53.9049 30.2775 53.3493 30.6664C53.2382 30.3887 53.3332 30.6664 52.9998 29.6664C52.9471 29.5083 52.1826 27.8331 52.016 27.4998C51.8493 27.1664 50.9772 26.1439 50.3332 25.4998C49.4998 24.6665 48.878 24.4998 47.9998 24.1665C47.3574 23.9226 46.9676 23.6665 45.317 23.6665C44.1504 23.6665 43.4837 23.6665 41.9998 23.9998C40.8218 24.2644 39.7382 24.8887 39.3493 25.1664L36.6826 26.8331C36.016 26.8331 34.9998 26.5553 33.9998 26.6664C32.4998 26.8331 32.4998 26.6664 29.8332 27.4998C27.2435 28.309 24.9998 30.3331 23.6826 32.1664C23.075 33.0122 22.4049 35.3887 22.1826 36.4998C21.6826 47.5553 20.516 69.8331 20.6826 70.4998Z" fill="#9999CC"/>
<circle cx="34.8333" cy="36.8333" r="1.83333" fill="#3A3654"/>
<path d="M47.2464 56.3636L49.0064 45.8636H51.0945L50.8807 47.1463H50.9751C51.1011 46.9408 51.2685 46.732 51.4773 46.5199C51.6894 46.3045 51.9529 46.1255 52.2678 45.983C52.5826 45.8371 52.9522 45.7642 53.3764 45.7642C53.9366 45.7642 54.4254 45.91 54.843 46.2017C55.2607 46.4901 55.5623 46.9259 55.7479 47.5092C55.9368 48.0893 55.9583 48.8168 55.8125 49.6918C55.6733 50.5436 55.4164 51.2628 55.0419 51.8494C54.6707 52.4328 54.2249 52.8752 53.7045 53.1768C53.1875 53.4751 52.639 53.6243 52.0589 53.6243C51.648 53.6243 51.3099 53.5563 51.0447 53.4205C50.7829 53.2846 50.5791 53.1139 50.4332 52.9084C50.2874 52.6996 50.1847 52.4891 50.125 52.277H50.0455L49.3693 56.3636H47.2464ZM50.4432 49.6818C50.3703 50.1359 50.367 50.532 50.4332 50.87C50.5028 51.2081 50.642 51.4716 50.8509 51.6605C51.0597 51.8461 51.3348 51.9389 51.6761 51.9389C52.0208 51.9389 52.3274 51.8445 52.5959 51.6555C52.8643 51.4633 53.0881 51.1982 53.267 50.8601C53.446 50.5187 53.5736 50.1259 53.6499 49.6818C53.7195 49.241 53.7211 48.8532 53.6548 48.5185C53.5885 48.1837 53.4527 47.9219 53.2472 47.733C53.0417 47.544 52.7633 47.4496 52.4119 47.4496C52.0705 47.4496 51.764 47.5407 51.4922 47.723C51.2237 47.9053 51 48.1638 50.821 48.4986C50.642 48.8333 50.5161 49.2277 50.4432 49.6818ZM59.4455 49.0852L58.7097 53.5H56.5968L58.2871 43.3182H60.3404L59.704 47.2109H59.7885C60.0338 46.7602 60.3702 46.4072 60.7978 46.152C61.2253 45.8935 61.7308 45.7642 62.3141 45.7642C62.8444 45.7642 63.2869 45.8802 63.6415 46.1122C63.9995 46.3409 64.253 46.6707 64.4022 47.1016C64.5513 47.5291 64.5762 48.0412 64.4767 48.6378L63.6614 53.5H61.5485L62.2942 49.0156C62.3704 48.545 62.3091 48.1787 62.1103 47.9169C61.9147 47.6551 61.6032 47.5241 61.1756 47.5241C60.8873 47.5241 60.6221 47.5855 60.3801 47.7081C60.1382 47.8307 59.9344 48.0097 59.7686 48.245C59.6062 48.477 59.4985 48.7571 59.4455 49.0852ZM64.8558 56.3636L66.6158 45.8636H68.7038L68.4901 47.1463H68.5845C68.7105 46.9408 68.8778 46.732 69.0866 46.5199C69.2988 46.3045 69.5623 46.1255 69.8771 45.983C70.192 45.8371 70.5616 45.7642 70.9858 45.7642C71.5459 45.7642 72.0348 45.91 72.4524 46.2017C72.87 46.4901 73.1716 46.9259 73.3572 47.5092C73.5462 48.0893 73.5677 48.8168 73.4219 49.6918C73.2827 50.5436 73.0258 51.2628 72.6513 51.8494C72.2801 52.4328 71.8343 52.8752 71.3139 53.1768C70.7969 53.4751 70.2483 53.6243 69.6683 53.6243C69.2573 53.6243 68.9193 53.5563 68.6541 53.4205C68.3923 53.2846 68.1884 53.1139 68.0426 52.9084C67.8968 52.6996 67.794 52.4891 67.7344 52.277H67.6548L66.9787 56.3636H64.8558ZM68.0526 49.6818C67.9796 50.1359 67.9763 50.532 68.0426 50.87C68.1122 51.2081 68.2514 51.4716 68.4602 51.6605C68.669 51.8461 68.9441 51.9389 69.2855 51.9389C69.6302 51.9389 69.9368 51.8445 70.2053 51.6555C70.4737 51.4633 70.6974 51.1982 70.8764 50.8601C71.0554 50.5187 71.183 50.1259 71.2592 49.6818C71.3288 49.241 71.3305 48.8532 71.2642 48.5185C71.1979 48.1837 71.062 47.9219 70.8565 47.733C70.651 47.544 70.3726 47.4496 70.0213 47.4496C69.6799 47.4496 69.3733 47.5407 69.1016 47.723C68.8331 47.9053 68.6094 48.1638 68.4304 48.4986C68.2514 48.8333 68.1255 49.2277 68.0526 49.6818Z" fill="#3A3654"/>
</g>
</svg>
