<svg width="100" height="100" viewBox="0 0 100 100" fill="none" xmlns="http://www.w3.org/2000/svg">
<mask id="mask0_54_62" style="mask-type:alpha" maskUnits="userSpaceOnUse" x="0" y="0" width="100" height="100">
<circle cx="50" cy="50" r="50" fill="#454266"/>
</mask>
<g mask="url(#mask0_54_62)">
<circle cx="50" cy="50" r="50" fill="#454266"/>
<path d="M43.3337 41.087H56.5039C60.1524 41.087 63 38.093 63 34.3946V22.1547C63 18.7204 59.9744 16.0787 56.5039 15.4623C52.1435 14.8459 47.3382 14.8459 43.3337 15.4623C37.7275 16.4309 36.8376 18.4562 36.8376 22.1547V27.0858H50.0078V28.6709H32.0323C28.2948 28.6709 24.9132 31.0484 23.9344 35.2752C22.6885 40.2064 22.6885 43.2884 23.9344 48.3957C24.9132 52.2702 27.0489 55 30.9644 55H35.2358V49.1002C35.1468 44.7854 38.9733 41.087 43.3337 41.087ZM42.5328 23.7397C41.198 23.7397 40.0412 22.5949 40.0412 21.2741C40.0412 19.9532 41.198 18.8085 42.5328 18.8085C43.8676 18.8085 45.0245 19.9532 45.0245 21.2741C45.0245 22.5949 43.8676 23.7397 42.5328 23.7397Z" fill="white"/>
<path d="M56.6663 42.913L43.4961 42.913C39.8476 42.913 37 45.907 37 49.6054L37 61.8453C37 65.2796 40.0256 67.9213 43.4961 68.5377C47.8565 69.1541 52.6618 69.1541 56.6663 68.5377C62.2725 67.5691 63.1624 65.5438 63.1624 61.8453L63.1624 56.9141L49.9922 56.9141L49.9922 55.3291L67.9677 55.3291C71.7052 55.3291 75.0868 52.9516 76.0656 48.7248C77.3115 43.7936 77.3115 40.7116 76.0656 35.6043C75.0868 31.7298 72.9511 29 69.0356 29L64.7642 29L64.7642 34.8998C64.8532 39.2146 61.0267 42.913 56.6663 42.913ZM57.4672 60.2603C58.802 60.2603 59.9588 61.4051 59.9588 62.7259C59.9588 64.0468 58.802 65.1915 57.4672 65.1915C56.1324 65.1915 54.9755 64.0468 54.9755 62.7259C54.9755 61.4051 56.1324 60.2603 57.4672 60.2603Z" fill="#EDFF18"/>
<path d="M28.0131 88.8636L29.773 78.3636H31.8611L31.6473 79.6463H31.7417C31.8677 79.4408 32.0351 79.232 32.2439 79.0199C32.456 78.8045 32.7195 78.6255 33.0344 78.483C33.3492 78.3371 33.7188 78.2642 34.143 78.2642C34.7032 78.2642 35.192 78.41 35.6096 78.7017C36.0273 78.9901 36.3289 79.4259 36.5145 80.0092C36.7034 80.5893 36.7249 81.3168 36.5791 82.1918C36.4399 83.0436 36.183 83.7628 35.8085 84.3494C35.4373 84.9328 34.9915 85.3752 34.4711 85.6768C33.9541 85.9751 33.4056 86.1243 32.8256 86.1243C32.4146 86.1243 32.0765 86.0563 31.8113 85.9205C31.5495 85.7846 31.3457 85.6139 31.1998 85.4084C31.054 85.1996 30.9513 84.9891 30.8916 84.777H30.8121L30.1359 88.8636H28.0131ZM31.2098 82.1818C31.1369 82.6359 31.1336 83.032 31.1998 83.37C31.2694 83.7081 31.4086 83.9716 31.6175 84.1605C31.8263 84.3461 32.1014 84.4389 32.4427 84.4389C32.7874 84.4389 33.094 84.3445 33.3625 84.1555C33.6309 83.9633 33.8547 83.6982 34.0336 83.3601C34.2126 83.0187 34.3402 82.6259 34.4165 82.1818C34.4861 81.741 34.4877 81.3532 34.4214 81.0185C34.3551 80.6837 34.2193 80.4219 34.0138 80.233C33.8083 80.044 33.5299 79.9496 33.1785 79.9496C32.8372 79.9496 32.5306 80.0407 32.2588 80.223C31.9903 80.4053 31.7666 80.6638 31.5876 80.9986C31.4086 81.3333 31.2827 81.7277 31.2098 82.1818ZM37.9426 88.8636C37.6708 88.8636 37.4222 88.8421 37.1968 88.799C36.9714 88.7592 36.7858 88.7079 36.64 88.6449L37.3857 87.0639C37.6211 87.1402 37.8348 87.1799 38.0271 87.1832C38.2226 87.1866 38.4016 87.1368 38.564 87.0341C38.7264 86.9313 38.8756 86.7623 39.0115 86.527L39.2004 86.2038L37.7686 78.3636H39.9163L40.5626 83.9815H40.6421L43.1727 78.3636H45.4944L41.1244 86.8253C40.9089 87.2396 40.6537 87.5992 40.3588 87.9041C40.0671 88.209 39.7207 88.4444 39.3197 88.6101C38.922 88.7791 38.4629 88.8636 37.9426 88.8636ZM50.64 78.3636L50.3765 79.9545H45.7728L46.0413 78.3636H50.64ZM47.3836 76.5341H49.5015L48.3183 83.6534C48.2851 83.849 48.2901 84.0014 48.3332 84.1108C48.3763 84.2169 48.4475 84.2914 48.547 84.3345C48.6497 84.3776 48.7723 84.3991 48.9149 84.3991C49.0143 84.3991 49.1154 84.3909 49.2181 84.3743C49.3209 84.3544 49.3988 84.3395 49.4518 84.3295L49.5313 85.9055C49.412 85.942 49.2513 85.9818 49.0491 86.0249C48.8502 86.0679 48.6149 86.0945 48.3431 86.1044C47.8261 86.1243 47.3886 86.0563 47.0306 85.9006C46.6727 85.7415 46.4158 85.4979 46.26 85.1697C46.1043 84.8416 46.0711 84.429 46.1606 83.9318L47.3836 76.5341ZM53.7746 81.5852L53.0388 86H50.9259L52.6162 75.8182H54.6695L54.0331 79.7109H54.1176C54.3629 79.2602 54.6993 78.9072 55.1269 78.652C55.5544 78.3935 56.0599 78.2642 56.6432 78.2642C57.1735 78.2642 57.616 78.3802 57.9706 78.6122C58.3286 78.8409 58.5821 79.1707 58.7313 79.6016C58.8804 80.0291 58.9053 80.5412 58.8058 81.1378L57.9905 86H55.8776L56.6233 81.5156C56.6995 81.045 56.6382 80.6787 56.4394 80.4169C56.2438 80.1551 55.9323 80.0241 55.5047 80.0241C55.2164 80.0241 54.9512 80.0855 54.7093 80.2081C54.4673 80.3307 54.2635 80.5097 54.0977 80.745C53.9353 80.977 53.8276 81.2571 53.7746 81.5852ZM63.1075 86.1491C62.3286 86.1491 61.684 85.9834 61.1736 85.652C60.6631 85.3172 60.3035 84.8532 60.0947 84.2599C59.8892 83.6634 59.8511 82.969 59.9804 82.1768C60.1063 81.3946 60.3682 80.7102 60.7659 80.1236C61.1636 79.5369 61.6691 79.0812 62.2822 78.7564C62.8954 78.4283 63.5864 78.2642 64.3554 78.2642C65.1309 78.2642 65.7739 78.4316 66.2844 78.7663C66.7948 79.0978 67.1544 79.5618 67.3632 80.1584C67.572 80.755 67.6118 81.4493 67.4825 82.2415C67.3532 83.0204 67.0881 83.7031 66.6871 84.2898C66.286 84.8764 65.7806 85.3338 65.1707 85.6619C64.5609 85.9867 63.8731 86.1491 63.1075 86.1491ZM63.3163 84.5085C63.6743 84.5085 63.9908 84.4074 64.2659 84.2053C64.5443 83.9998 64.7747 83.7214 64.9569 83.37C65.1425 83.0154 65.2718 82.6143 65.3447 82.1669C65.4176 81.7261 65.4226 81.335 65.3596 80.9936C65.2967 80.6489 65.1641 80.3771 64.9619 80.1783C64.7631 79.9794 64.4896 79.88 64.1416 79.88C63.7836 79.88 63.4655 79.9827 63.1871 80.1882C62.9086 80.3904 62.6783 80.6688 62.496 81.0234C62.3137 81.3781 62.1861 81.7808 62.1132 82.2315C62.0436 82.669 62.0386 83.0601 62.0983 83.4048C62.1579 83.7462 62.2889 84.0163 62.491 84.2152C62.6932 84.4107 62.9683 84.5085 63.3163 84.5085ZM71.0969 81.5852L70.3611 86H68.2481L69.5209 78.3636H71.5344L71.3156 79.7109H71.4001C71.6421 79.2635 71.9835 78.9105 72.4243 78.652C72.8684 78.3935 73.3738 78.2642 73.9406 78.2642C74.4709 78.2642 74.9134 78.3802 75.268 78.6122C75.626 78.8442 75.8779 79.174 76.0237 79.6016C76.1729 80.0291 76.1977 80.5412 76.0983 81.1378L75.2829 86H73.165L73.9157 81.5156C73.992 81.0483 73.9323 80.6837 73.7368 80.4219C73.5445 80.1567 73.2346 80.0241 72.8071 80.0241C72.522 80.0241 72.2602 80.0855 72.0216 80.2081C71.7829 80.3307 71.5824 80.5097 71.42 80.745C71.2609 80.977 71.1532 81.2571 71.0969 81.5852Z" fill="#E2E2E2"/>
</g>
</svg>
