<svg width="147" height="38" viewBox="0 0 147 38" fill="none" xmlns="http://www.w3.org/2000/svg">
<path d="M4.94141 34C3.9388 34 3.4375 33.4629 3.4375 32.3887V4.80273C3.4375 3.72852 3.9388 3.19141 4.94141 3.19141H12.4395C19.028 3.19141 23.4824 4.52344 25.8027 7.1875C28.1374 9.85156 29.3047 13.64 29.3047 18.5527C29.3047 23.4655 28.1374 27.2682 25.8027 29.9609C23.4824 32.6536 19.028 34 12.4395 34H4.94141ZM9.71094 28.6719H12.0312C16.4714 28.6719 19.3431 27.8483 20.6465 26.2012C21.9499 24.5397 22.6016 21.9902 22.6016 18.5527C22.6016 15.1152 21.9499 12.5801 20.6465 10.9473C19.3431 9.30013 16.4714 8.47656 12.0312 8.47656H9.71094V28.6719ZM32.8711 22.7207C32.8711 19.0684 33.8092 16.2038 35.6855 14.127C37.5762 12.0501 40.3835 11.0117 44.1074 11.0117C47.8314 11.0117 50.6315 12.0501 52.5078 14.127C54.3984 16.2038 55.3438 19.0684 55.3438 22.7207C55.3438 26.373 54.3984 29.2376 52.5078 31.3145C50.6315 33.3913 47.8314 34.4297 44.1074 34.4297C40.3835 34.4297 37.5762 33.3913 35.6855 31.3145C33.8092 29.2376 32.8711 26.373 32.8711 22.7207ZM39.2305 22.7207C39.2305 25.4421 39.6458 27.3757 40.4766 28.5215C41.3216 29.653 42.5319 30.2188 44.1074 30.2188C45.6829 30.2188 46.8861 29.653 47.7168 28.5215C48.5618 27.3757 48.9844 25.4421 48.9844 22.7207C48.9844 19.9993 48.5618 18.0729 47.7168 16.9414C46.8861 15.7956 45.6829 15.2227 44.1074 15.2227C42.5319 15.2227 41.3216 15.7956 40.4766 16.9414C39.6458 18.0729 39.2305 19.9993 39.2305 22.7207ZM59.2324 15.7383C58.3874 15.7383 57.9648 15.3802 57.9648 14.6641V12.5156C57.9648 11.7995 58.3874 11.4414 59.2324 11.4414H60.6934V10.6895C60.6934 10.0449 60.8438 9.45768 61.1445 8.92773L62.7988 6.02734C63.1139 5.48307 63.4863 5.21094 63.916 5.21094H65.4199C66.2793 5.21094 66.709 5.64062 66.709 6.5V11.4414H70.1895C71.0345 11.4414 71.457 11.7995 71.457 12.5156V14.6641C71.457 15.3802 71.0345 15.7383 70.1895 15.7383H66.709V26.3945C66.709 27.8555 66.8092 28.9082 67.0098 29.5527C67.2246 30.1829 67.7689 30.498 68.6426 30.498C69.0866 30.498 69.5879 30.4264 70.1465 30.2832C70.7051 30.1257 71.1419 29.9753 71.457 29.832C71.9583 29.6029 72.2878 29.7676 72.4453 30.3262L73.0898 32.7754C73.2188 33.2624 73.0326 33.6204 72.5312 33.8496C72.0586 34.0645 71.4069 34.2578 70.5762 34.4297C69.7598 34.6159 68.9362 34.709 68.1055 34.709C66.0573 34.709 64.3099 34.2865 62.8633 33.4414C61.4167 32.5964 60.6934 30.8561 60.6934 28.2207V15.7383H59.2324Z" fill="#454545"/>
<path d="M79.1484 34C78.1458 34 77.6445 33.4629 77.6445 32.3887V4.80273C77.6445 3.72852 78.1458 3.19141 79.1484 3.19141H82.4141C83.4167 3.19141 83.918 3.72852 83.918 4.80273V15.3086H95.4766V4.80273C95.4766 3.72852 95.9779 3.19141 96.9805 3.19141H100.246C101.249 3.19141 101.75 3.72852 101.75 4.80273V32.3887C101.75 33.4629 101.249 34 100.246 34H96.9805C95.9779 34 95.4766 33.4629 95.4766 32.3887V20.6367H83.918V32.3887C83.918 33.4629 83.4167 34 82.4141 34H79.1484ZM106.906 27.9844C106.906 25.1198 108.274 23.043 111.01 21.7539C113.745 20.4648 116.868 19.7773 120.377 19.6914V18.832C120.377 17.5143 120.048 16.5833 119.389 16.0391C118.73 15.4948 117.813 15.2227 116.639 15.2227C115.808 15.2227 115.07 15.3444 114.426 15.5879C113.796 15.8171 113.244 16.0892 112.771 16.4043C112.313 16.7051 111.898 17.013 111.525 17.3281C110.867 17.901 110.322 17.9297 109.893 17.4141L108.109 15.2227C107.665 14.6784 107.773 14.1198 108.432 13.5469C108.933 13.1029 109.513 12.7161 110.172 12.3867C110.845 12.0573 111.733 11.7493 112.836 11.4629C113.939 11.1621 115.371 11.0117 117.133 11.0117C120.112 11.0117 122.396 11.6992 123.986 13.0742C125.59 14.4492 126.393 16.4759 126.393 19.1543V32.7109C126.393 33.5703 125.963 34 125.104 34H121.58C120.807 34 120.42 33.5703 120.42 32.7109V32.0664H120.377C119.532 32.8828 118.515 33.4844 117.326 33.8711C116.152 34.2435 115.07 34.4297 114.082 34.4297C111.733 34.4297 109.95 33.8568 108.732 32.7109C107.515 31.5508 106.906 29.9753 106.906 27.9844ZM113.266 27.8555C113.266 28.3568 113.366 28.7936 113.566 29.166C113.767 29.5241 114.082 29.7891 114.512 29.9609C114.941 30.1328 115.421 30.2188 115.951 30.2188C116.682 30.2188 117.391 30.1185 118.078 29.918C118.766 29.7174 119.532 29.2448 120.377 28.5V23.8379C117.971 24.11 116.359 24.4609 115.543 24.8906C114.727 25.3203 114.139 25.7643 113.781 26.2227C113.438 26.681 113.266 27.2253 113.266 27.8555ZM131.506 15.7383C130.661 15.7383 130.238 15.3802 130.238 14.6641V12.5156C130.238 11.7995 130.661 11.4414 131.506 11.4414H132.967V10.6895C132.967 10.0449 133.117 9.45768 133.418 8.92773L135.072 6.02734C135.387 5.48307 135.76 5.21094 136.189 5.21094H137.693C138.553 5.21094 138.982 5.64062 138.982 6.5V11.4414H142.463C143.308 11.4414 143.73 11.7995 143.73 12.5156V14.6641C143.73 15.3802 143.308 15.7383 142.463 15.7383H138.982V26.3945C138.982 27.8555 139.083 28.9082 139.283 29.5527C139.498 30.1829 140.042 30.498 140.916 30.498C141.36 30.498 141.861 30.4264 142.42 30.2832C142.979 30.1257 143.415 29.9753 143.73 29.832C144.232 29.6029 144.561 29.7676 144.719 30.3262L145.363 32.7754C145.492 33.2624 145.306 33.6204 144.805 33.8496C144.332 34.0645 143.68 34.2578 142.85 34.4297C142.033 34.6159 141.21 34.709 140.379 34.709C138.331 34.709 136.583 34.2865 135.137 33.4414C133.69 32.5964 132.967 30.8561 132.967 28.2207V15.7383H131.506Z" fill="#E95858"/>
</svg>
